<svg viewBox="0 0 612 669" fill="none" xmlns="http://www.w3.org/2000/svg" role="img" aria-label="Sleep House">
<path d="M315.473 14.3896C343.487 11.3965 375.833 15.8749 403.466 20.4615C334.792 24.505 272.229 50.6135 222.732 98.8674C170.62 149.947 140.797 219.545 139.754 292.508C138.954 365.785 167.274 436.383 218.492 488.792C269.685 540.901 339.422 570.63 412.465 571.484C489.287 572.252 557.075 542.827 611.571 489.418C599.664 511.544 580.719 535.097 563.345 553.038C511.842 606.988 437.9 640.021 363.944 646.679C280.469 653.619 197.622 627.374 133.37 573.633C69.3661 519.869 29.1623 443.021 21.4926 359.785C13.7724 275.294 40.166 191.225 94.793 126.308C151.355 59.1272 228.577 21.8744 315.473 14.3896Z" fill="#CF9C00"/>
</svg>
